<?xml version="1.0" standalone="no"?>
<!DOCTYPE svg PUBLIC "-//W3C//DTD SVG 20010904//EN"
 "http://www.w3.org/TR/2001/REC-SVG-20010904/DTD/svg10.dtd">
<svg version="1.0" xmlns="http://www.w3.org/2000/svg"
 width="1254.000000pt" height="1254.000000pt" viewBox="0 0 1254.000000 1254.000000"
 preserveAspectRatio="xMidYMid meet">

<!-- White stroke layer (background) -->
<g transform="translate(0.000000,1254.000000) scale(0.100000,-0.100000)"
fill="none" stroke="#ffffff" stroke-width="120" stroke-linejoin="round" stroke-linecap="round">
<path d="M7428 8153 l-3 -2128 -323 -3 -322 -2 -24 52 c-13 29 -158 323 -321
653 l-298 600 -244 -495 c-134 -272 -278 -566 -320 -652 l-76 -158 -189 0
-188 0 0 1150 0 1150 -695 0 -695 0 0 -1935 0 -1935 695 0 695 0 0 590 0 590
308 0 307 0 65 133 c163 336 332 672 338 674 4 1 96 -179 204 -400 l198 -402
442 -5 443 -5 3 -587 2 -588 695 0 695 0 -2 2913 -3 2912 -692 3 -693 2 -2
-2127z m992 -787 l0 -2513 -292 -5 c-161 -3 -296 -3 -300 -1 -10 5 -11 5017
-1 5026 3 4 138 7 300 7 l293 0 0 -2514z m-3700 -981 l0 -1535 -300 0 -300 0
0 1535 0 1535 300 0 300 0 0 -1535z"/>
<path d="M3313 3895 c-195 -53 -334 -209 -365 -407 -51 -338 244 -623 590
-570 90 15 198 64 262 121 l45 40 -61 62 -62 61 -52 -41 c-109 -86 -243 -101
-367 -40 -69 33 -110 77 -151 159 -23 47 -27 67 -26 136 0 67 5 91 27 135 35
71 89 126 157 158 47 22 69 26 145 26 103 0 156 -19 222 -78 l39 -35 63 61 64
61 -45 41 c-57 51 -129 90 -203 110 -73 19 -212 18 -282 0z"/>
<path d="M5280 3725 c0 -96 -2 -175 -5 -175 -3 0 -25 15 -50 34 -78 60 -209
72 -309 28 -262 -116 -269 -536 -10 -663 55 -27 77 -32 137 -33 86 0 133 14
192 60 l45 34 0 -40 0 -41 88 3 87 3 0 480 0 480 -87 3 -88 3 0 -176z m-98
-267 c87 -49 124 -172 80 -270 -50 -114 -197 -149 -301 -71 -94 72 -94 257 1
325 73 52 146 57 220 16z"/>
<path d="M6410 3416 l0 -486 90 0 89 0 3 153 3 152 155 5 c141 5 160 7 212 32
117 55 178 155 178 293 0 145 -71 257 -196 305 -54 22 -77 24 -296 28 l-238 4
0 -486z m480 291 c74 -49 96 -157 49 -233 -36 -58 -82 -74 -226 -74 l-123 0 0
165 0 165 134 0 c121 0 136 -2 166 -23z"/>
<path d="M8032 3478 c3 -415 3 -424 25 -464 26 -49 71 -79 130 -89 75 -12 83
-4 83 81 0 67 -2 74 -19 74 -11 0 -27 10 -35 22 -14 19 -16 75 -16 410 l0 388
-85 0 -86 0 3 -422z"/>
<path d="M4167 3629 c-225 -53 -341 -304 -238 -514 110 -223 422 -272 600 -94
129 129 142 324 32 476 -79 110 -248 166 -394 132z m183 -164 c36 -19 77 -65
94 -107 24 -56 20 -116 -10 -177 -32 -64 -82 -99 -152 -108 -43 -5 -60 -1
-107 21 -94 47 -135 150 -100 255 37 112 171 168 275 116z"/>
<path d="M5823 3626 c-128 -42 -205 -125 -239 -256 -39 -154 30 -329 160 -405
135 -79 337 -64 448 34 l43 39 -20 22 c-11 12 -37 36 -58 52 l-38 31 -22 -21
c-83 -76 -221 -76 -294 0 -29 30 -53 75 -53 99 0 5 105 9 260 9 l260 0 0 40
c0 148 -79 283 -197 337 -67 31 -187 40 -250 19z m177 -148 c46 -24 90 -77 90
-109 0 -18 -11 -19 -171 -19 -152 0 -170 2 -165 16 3 9 6 19 6 24 0 19 57 74
95 91 53 25 92 24 145 -3z"/>
<path d="M8492 3621 c-127 -44 -185 -171 -129 -281 29 -58 85 -92 206 -124
119 -32 141 -46 141 -91 0 -47 -29 -65 -103 -65 -63 0 -113 17 -163 55 -18 14
-35 25 -37 25 -3 0 -24 -25 -47 -55 -42 -54 -42 -56 -25 -75 31 -34 138 -80
206 -90 114 -16 232 13 285 72 54 59 70 155 38 224 -32 68 -75 92 -267 150
-70 21 -96 51 -79 90 25 53 112 59 198 13 l59 -30 23 28 c13 15 32 40 43 55
l20 27 -38 26 c-89 61 -231 80 -331 46z"/>
<path d="M9214 3631 c-96 -25 -195 -108 -237 -199 -18 -39 -22 -65 -22 -152 0
-95 3 -111 28 -162 106 -217 407 -272 597 -110 l35 30 -44 39 c-80 69 -77 68
-115 35 -66 -58 -169 -62 -253 -11 -37 23 -73 76 -73 108 0 20 3 21 258 23
l257 3 -3 68 c-5 133 -77 249 -187 302 -58 29 -180 42 -241 26z m180 -159 c35
-21 76 -76 76 -103 0 -18 -11 -19 -170 -19 -112 0 -170 4 -170 10 0 19 27 64
52 87 58 54 144 64 212 25z"/>
<path d="M7244 3621 c-2 -2 -4 -113 -4 -246 0 -268 7 -313 60 -377 45 -55 109
-81 194 -81 79 0 128 19 191 74 l35 31 0 -46 0 -46 85 0 85 0 0 344 c0 190 -3
346 -7 348 -5 2 -42 2 -85 0 l-76 -4 -4 -211 c-3 -192 -5 -215 -24 -247 -42
-72 -152 -102 -221 -60 -55 33 -58 45 -63 293 l-5 229 -78 1 c-43 1 -81 0 -83
-2z"/>
</g>

<!-- Dark fill layer (foreground) -->
<g transform="translate(0.000000,1254.000000) scale(0.100000,-0.100000)"
fill="#0D1117" stroke="none">
<path d="M7428 8153 l-3 -2128 -323 -3 -322 -2 -24 52 c-13 29 -158 323 -321
653 l-298 600 -244 -495 c-134 -272 -278 -566 -320 -652 l-76 -158 -189 0
-188 0 0 1150 0 1150 -695 0 -695 0 0 -1935 0 -1935 695 0 695 0 0 590 0 590
308 0 307 0 65 133 c163 336 332 672 338 674 4 1 96 -179 204 -400 l198 -402
442 -5 443 -5 3 -587 2 -588 695 0 695 0 -2 2913 -3 2912 -692 3 -693 2 -2
-2127z m992 -787 l0 -2513 -292 -5 c-161 -3 -296 -3 -300 -1 -10 5 -11 5017
-1 5026 3 4 138 7 300 7 l293 0 0 -2514z m-3700 -981 l0 -1535 -300 0 -300 0
0 1535 0 1535 300 0 300 0 0 -1535z"/>
<path d="M3313 3895 c-195 -53 -334 -209 -365 -407 -51 -338 244 -623 590
-570 90 15 198 64 262 121 l45 40 -61 62 -62 61 -52 -41 c-109 -86 -243 -101
-367 -40 -69 33 -110 77 -151 159 -23 47 -27 67 -26 136 0 67 5 91 27 135 35
71 89 126 157 158 47 22 69 26 145 26 103 0 156 -19 222 -78 l39 -35 63 61 64
61 -45 41 c-57 51 -129 90 -203 110 -73 19 -212 18 -282 0z"/>
<path d="M5280 3725 c0 -96 -2 -175 -5 -175 -3 0 -25 15 -50 34 -78 60 -209
72 -309 28 -262 -116 -269 -536 -10 -663 55 -27 77 -32 137 -33 86 0 133 14
192 60 l45 34 0 -40 0 -41 88 3 87 3 0 480 0 480 -87 3 -88 3 0 -176z m-98
-267 c87 -49 124 -172 80 -270 -50 -114 -197 -149 -301 -71 -94 72 -94 257 1
325 73 52 146 57 220 16z"/>
<path d="M6410 3416 l0 -486 90 0 89 0 3 153 3 152 155 5 c141 5 160 7 212 32
117 55 178 155 178 293 0 145 -71 257 -196 305 -54 22 -77 24 -296 28 l-238 4
0 -486z m480 291 c74 -49 96 -157 49 -233 -36 -58 -82 -74 -226 -74 l-123 0 0
165 0 165 134 0 c121 0 136 -2 166 -23z"/>
<path d="M8032 3478 c3 -415 3 -424 25 -464 26 -49 71 -79 130 -89 75 -12 83
-4 83 81 0 67 -2 74 -19 74 -11 0 -27 10 -35 22 -14 19 -16 75 -16 410 l0 388
-85 0 -86 0 3 -422z"/>
<path d="M4167 3629 c-225 -53 -341 -304 -238 -514 110 -223 422 -272 600 -94
129 129 142 324 32 476 -79 110 -248 166 -394 132z m183 -164 c36 -19 77 -65
94 -107 24 -56 20 -116 -10 -177 -32 -64 -82 -99 -152 -108 -43 -5 -60 -1
-107 21 -94 47 -135 150 -100 255 37 112 171 168 275 116z"/>
<path d="M5823 3626 c-128 -42 -205 -125 -239 -256 -39 -154 30 -329 160 -405
135 -79 337 -64 448 34 l43 39 -20 22 c-11 12 -37 36 -58 52 l-38 31 -22 -21
c-83 -76 -221 -76 -294 0 -29 30 -53 75 -53 99 0 5 105 9 260 9 l260 0 0 40
c0 148 -79 283 -197 337 -67 31 -187 40 -250 19z m177 -148 c46 -24 90 -77 90
-109 0 -18 -11 -19 -171 -19 -152 0 -170 2 -165 16 3 9 6 19 6 24 0 19 57 74
95 91 53 25 92 24 145 -3z"/>
<path d="M8492 3621 c-127 -44 -185 -171 -129 -281 29 -58 85 -92 206 -124
119 -32 141 -46 141 -91 0 -47 -29 -65 -103 -65 -63 0 -113 17 -163 55 -18 14
-35 25 -37 25 -3 0 -24 -25 -47 -55 -42 -54 -42 -56 -25 -75 31 -34 138 -80
206 -90 114 -16 232 13 285 72 54 59 70 155 38 224 -32 68 -75 92 -267 150
-70 21 -96 51 -79 90 25 53 112 59 198 13 l59 -30 23 28 c13 15 32 40 43 55
l20 27 -38 26 c-89 61 -231 80 -331 46z"/>
<path d="M9214 3631 c-96 -25 -195 -108 -237 -199 -18 -39 -22 -65 -22 -152 0
-95 3 -111 28 -162 106 -217 407 -272 597 -110 l35 30 -44 39 c-80 69 -77 68
-115 35 -66 -58 -169 -62 -253 -11 -37 23 -73 76 -73 108 0 20 3 21 258 23
l257 3 -3 68 c-5 133 -77 249 -187 302 -58 29 -180 42 -241 26z m180 -159 c35
-21 76 -76 76 -103 0 -18 -11 -19 -170 -19 -112 0 -170 4 -170 10 0 19 27 64
52 87 58 54 144 64 212 25z"/>
<path d="M7244 3621 c-2 -2 -4 -113 -4 -246 0 -268 7 -313 60 -377 45 -55 109
-81 194 -81 79 0 128 19 191 74 l35 31 0 -46 0 -46 85 0 85 0 0 344 c0 190 -3
346 -7 348 -5 2 -42 2 -85 0 l-76 -4 -4 -211 c-3 -192 -5 -215 -24 -247 -42
-72 -152 -102 -221 -60 -55 33 -58 45 -63 293 l-5 229 -78 1 c-43 1 -81 0 -83
-2z"/>
</g>

</svg>
